<svg width="104" height="32" viewBox="0 0 104 32" fill="none" xmlns="http://www.w3.org/2000/svg">
<path d="M93.8204 24.3704C92.0498 24.3704 90.4608 24.0526 89.0534 23.417C87.6687 22.7814 86.5791 21.8166 85.7846 20.5227C84.9901 19.2288 84.5929 17.6058 84.5929 15.6536C84.5929 13.7922 85.0128 12.2145 85.8527 10.9206C86.6926 9.62671 87.8163 8.63926 89.2237 7.95826C90.6538 7.25456 92.2314 6.90271 93.9566 6.90271C95.7727 6.90271 97.3843 7.24321 98.7917 7.92421C100.199 8.58251 101.3 9.56996 102.095 10.8866C102.912 12.2032 103.32 13.8489 103.32 15.8238C103.32 17.6625 102.889 19.2175 102.026 20.4887C101.187 21.7599 100.052 22.7246 98.6215 23.3829C97.1914 24.0412 95.591 24.3704 93.8204 24.3704ZM93.8885 19.331C94.5468 19.331 95.0916 19.2061 95.5229 18.9564C95.9769 18.684 96.3174 18.2868 96.5444 17.7647C96.7941 17.2426 96.919 16.5956 96.919 15.8238C96.919 15.0747 96.8055 14.4164 96.5785 13.8489C96.3515 13.2587 96.0223 12.7934 95.591 12.4529C95.1824 12.1124 94.6603 11.9421 94.0247 11.9421C93.3891 11.9421 92.8443 12.0897 92.3903 12.3848C91.9363 12.6799 91.5845 13.1112 91.3348 13.6787C91.1078 14.2235 90.9943 14.8818 90.9943 15.6536C90.9943 16.38 91.1078 17.0269 91.3348 17.5944C91.5618 18.1392 91.8909 18.5705 92.3222 18.8883C92.7535 19.1834 93.2756 19.331 93.8885 19.331Z" fill="white"/>
<path d="M72.2974 31.1123V10.6142L69.1989 7.51561H66.1003V31.4528L72.2974 31.1123ZM70.2885 13.917C70.9468 13.236 71.5597 12.6912 72.1272 12.2826C72.6947 11.874 73.2508 11.6697 73.7956 11.6697C74.4539 11.6697 74.9987 11.8173 75.43 12.1124C75.884 12.4075 76.2245 12.8501 76.4515 13.4403C76.7012 14.0078 76.8261 14.7115 76.8261 15.5514C76.8261 16.3913 76.7012 17.1177 76.4515 17.7306C76.2018 18.3435 75.8727 18.8089 75.4641 19.1267C75.0555 19.4445 74.5901 19.6034 74.068 19.6034C73.4778 19.6034 72.8649 19.4445 72.2293 19.1267C71.5937 18.7862 70.9468 18.3095 70.2885 17.6966L68.5519 21.3399C69.1875 22.0663 69.8231 22.6565 70.4587 23.1105C71.117 23.5418 71.7753 23.8596 72.4336 24.0639C73.1146 24.2682 73.7956 24.3704 74.4766 24.3704C76.2245 24.3704 77.7454 24.0412 79.0393 23.3829C80.3559 22.7246 81.3774 21.7372 82.1038 20.4206C82.8529 19.104 83.2275 17.4696 83.2275 15.5174C83.2275 13.5425 82.8529 11.9194 82.1038 10.6482C81.3774 9.37701 80.3786 8.43496 79.1074 7.82206C77.8362 7.20916 76.3834 6.90271 74.749 6.90271C73.9091 6.90271 73.0919 7.05026 72.2974 7.34536C71.5029 7.64046 70.7765 8.02636 70.1182 8.50306C69.4826 8.95706 68.9605 9.43376 68.5519 9.93316L70.2885 13.917Z" fill="white"/>
<path d="M52.5606 23.9958L54.7058 20.4546L56.919 23.9958H63.8652L58.247 16.1302L63.8652 7.48154H57.0212L54.5015 11.4654L51.6072 6.97079L45.6144 8.40089L50.9603 15.7897L45.5804 23.9958H52.5606Z" fill="white"/>
<path d="M37.3283 7.51559V18.6159C37.0105 18.7521 36.636 18.8996 36.2047 19.0585C35.7961 19.1947 35.3875 19.3196 34.9789 19.4331C34.593 19.5239 34.2638 19.5693 33.9914 19.5693C33.3104 19.5693 32.8451 19.365 32.5954 18.9564C32.3457 18.5478 32.2208 18.0938 32.2208 17.5944V7.51559H26.0237V18.1732C26.0237 19.399 26.228 20.5 26.6366 21.4761C27.0679 22.4295 27.7262 23.1899 28.6115 23.7574C29.4968 24.3022 30.6318 24.5746 32.0165 24.5746C32.9018 24.5746 33.7531 24.4498 34.5703 24.2001C35.4102 23.9731 36.182 23.6893 36.8857 23.3488C37.5894 23.0083 38.2136 22.6678 38.7584 22.3273L40.529 24.0298H43.5254V7.51559H37.3283Z" fill="white"/>
<path d="M14.5851 14.5639H10.0564L12.2697 8.2647L14.5851 14.5639ZM9.27327 0.841797L0.590515 23.9958H6.75357L8.35392 19.4331H16.3557L18.0241 24.3363L24.1191 23.7234L15.4704 0.841797H9.27327Z" fill="white"/>
</svg>
